<svg xmlns="http://www.w3.org/2000/svg" xmlns:xlink="http://www.w3.org/1999/xlink" width="928" height="483" version="1.1" viewBox="0 0 928 483"><title>Universal</title><desc>Created with Sketch.</desc><defs><path id="path-1" d="M17.4881428,400 C7.83037292,400 0,392.07203 0,382.293886 L0,17.7061143 C0,7.92561643 7.83037292,0 17.4881428,0 L207.509532,0 C217.169627,0 225,7.92561643 225,17.7061143 L225,382.293886 C225,392.07203 217.169627,400 207.509532,400 L17.4881428,400 Z M17.4068526,52.9896762 L208.782763,52.9896762 L208.782763,336.195004 L17.4068526,336.195004 L17.4068526,52.9896762 Z"/><filter id="filter-2" width="200%" height="200%" x="-50%" y="-50%" filterUnits="objectBoundingBox"><feOffset dx="0" dy="5" in="SourceAlpha" result="shadowOffsetOuter1"/><feGaussianBlur in="shadowOffsetOuter1" result="shadowBlurOuter1" stdDeviation="2.5"/><feColorMatrix in="shadowBlurOuter1" result="shadowMatrixOuter1" type="matrix" values="0 0 0 0 0 0 0 0 0 0 0 0 0 0 0 0 0 0 0.24 0"/><feOffset dx="0" dy="0" in="SourceAlpha" result="shadowOffsetOuter2"/><feGaussianBlur in="shadowOffsetOuter2" result="shadowBlurOuter2" stdDeviation="2.5"/><feColorMatrix in="shadowBlurOuter2" result="shadowMatrixOuter2" type="matrix" values="0 0 0 0 0 0 0 0 0 0 0 0 0 0 0 0 0 0 0.12 0"/><feMerge><feMergeNode in="shadowMatrixOuter1"/><feMergeNode in="shadowMatrixOuter2"/></feMerge></filter><radialGradient id="radialGradient-3" cx="50%" cy="0%" r="100%" fx="50%" fy="0%"><stop offset="10%" stop-color="#7FB3DF"/><stop offset="90%" stop-color="#0F5B94"/></radialGradient><radialGradient id="radialGradient-4" cx="50%" cy="0%" r="100%" fx="50%" fy="0%"><stop offset="0%" stop-color="#F6F0EE"/><stop offset="100%" stop-color="#DDD"/></radialGradient><linearGradient id="linearGradient-5" x1="50%" x2="50%" y1="-11.644%" y2="9.804%"><stop offset="0%" stop-color="#F06B59"/><stop offset="100%" stop-color="#DF2227"/></linearGradient><radialGradient id="radialGradient-6" cx="25.782%" cy="58.793%" r="61.88%" fx="25.782%" fy="58.793%"><stop offset="0%" stop-color="#4CB749"/><stop offset="100%" stop-color="#388B41"/></radialGradient><radialGradient id="radialGradient-7" cx="31.431%" cy="39.187%" r="78.01%" fx="31.431%" fy="39.187%"><stop offset="0%" stop-color="#FCD209"/><stop offset="78.682%" stop-color="#F7C616"/><stop offset="100%" stop-color="#BC821E"/></radialGradient><rect id="path-8" width="144" height="359" x="0" y="0" rx="8.08"/><filter id="filter-9" width="200%" height="200%" x="-50%" y="-50%" filterUnits="objectBoundingBox"><feOffset dx="0" dy="5" in="SourceAlpha" result="shadowOffsetOuter1"/><feGaussianBlur in="shadowOffsetOuter1" result="shadowBlurOuter1" stdDeviation="2.5"/><feComposite in="shadowBlurOuter1" in2="SourceAlpha" operator="out" result="shadowBlurOuter1"/><feColorMatrix in="shadowBlurOuter1" type="matrix" values="0 0 0 0 0 0 0 0 0 0 0 0 0 0 0 0 0 0 0.23 0"/></filter><mask id="mask-10" width="144" height="359" x="0" y="0" fill="#fff" maskContentUnits="userSpaceOnUse" maskUnits="objectBoundingBox"><use xlink:href="#path-8"/></mask><rect id="path-11" width="144" height="359" x="0" y="0" rx="8.08"/><filter id="filter-12" width="200%" height="200%" x="-50%" y="-50%" filterUnits="objectBoundingBox"><feOffset dx="0" dy="5" in="SourceAlpha" result="shadowOffsetOuter1"/><feGaussianBlur in="shadowOffsetOuter1" result="shadowBlurOuter1" stdDeviation="2.5"/><feComposite in="shadowBlurOuter1" in2="SourceAlpha" operator="out" result="shadowBlurOuter1"/><feColorMatrix in="shadowBlurOuter1" type="matrix" values="0 0 0 0 0 0 0 0 0 0 0 0 0 0 0 0 0 0 0.23 0"/></filter><mask id="mask-13" width="144" height="359" x="0" y="0" fill="#fff" maskContentUnits="userSpaceOnUse" maskUnits="objectBoundingBox"><use xlink:href="#path-11"/></mask><rect id="path-14" width="168" height="420" x="0" y="0" rx="9.45"/><filter id="filter-15" width="200%" height="200%" x="-50%" y="-50%" filterUnits="objectBoundingBox"><feMorphology in="SourceAlpha" operator="dilate" radius="2.1" result="shadowSpreadOuter1"/><feOffset dx="0" dy="5" in="shadowSpreadOuter1" result="shadowOffsetOuter1"/><feGaussianBlur in="shadowOffsetOuter1" result="shadowBlurOuter1" stdDeviation="2.5"/><feComposite in="shadowBlurOuter1" in2="SourceAlpha" operator="out" result="shadowBlurOuter1"/><feColorMatrix in="shadowBlurOuter1" type="matrix" values="0 0 0 0 0 0 0 0 0 0 0 0 0 0 0 0 0 0 0.23 0"/></filter><mask id="mask-16" width="172.2" height="424.2" x="-2.1" y="-2.1" maskContentUnits="userSpaceOnUse" maskUnits="objectBoundingBox"><rect width="172.2" height="424.2" x="-2.1" y="-2.1" fill="#fff"/><use fill="#000" xlink:href="#path-14"/></mask></defs><g id="Universal" fill="none" fill-rule="evenodd" stroke="none" stroke-width="1"><g><g id="iphone" transform="translate(28.000000, 36.000000)"><g id="iPhone-Outline-Copy-2"><use fill="#000" fill-opacity="1" filter="url(#filter-2)" xlink:href="#path-1"/><use fill="#ECEFF1" fill-rule="evenodd" xlink:href="#path-1"/></g><path id="speaker" fill="#FFF" d="M133.449217,26.9964062 L90.3984404,26.9964062 C88.5408193,26.9964062 87.034263,25.4710722 87.034263,23.5902978 C87.034263,21.7095234 88.5408193,20.1865433 90.3984404,20.1865433 L133.449217,20.1865433 C135.306838,20.1865433 136.813394,21.7095234 136.813394,23.5902978 C136.813394,25.4710722 135.306838,26.9964062 133.449217,26.9964062 L133.449217,26.9964062 Z"/><path id="home-button" stroke="#FFF" stroke-width="2.5" d="M126.5625,366.666667 C126.5625,374.454876 120.266084,380.769231 112.5,380.769231 C104.733916,380.769231 98.4375,374.454876 98.4375,366.666667 C98.4375,358.878458 104.733916,352.564103 112.5,352.564103 C120.266084,352.564103 126.5625,358.878458 126.5625,366.666667 L126.5625,366.666667 Z"/><rect id="screen" width="194.318" height="287.179" x="15" y="51" fill="#FFF"/><g id="text" stroke="#E1E2E3" stroke-linecap="square" stroke-opacity=".7" stroke-width="9" transform="translate(31.000000, 283.000000)"><path id="Line" d="M0,1.5 L166.689941,1.5"/><path id="Line" d="M0,19.5 L166.689941,19.5"/></g><g id="boxes" fill-opacity=".7" transform="translate(25.000000, 67.000000)"><rect id="Rectangle-69" width="173" height="54.996" x="0" y=".004" fill="#E1E2E3" rx="4"/><rect id="Rectangle-70" width="175" height="131" x="1" y="69" fill="#E1E2E3" rx="4"/><rect id="Rectangle-69" width="173" height="22.21" x="3" y="249" fill="#E1E3E4" rx="4"/></g></g><g id="chrome" transform="translate(84.000000, 182.000000)"><g id="Group"><path id="Shape" fill="#000" fill-opacity=".1" d="M91.8125,66.7955556 C91.8124997,47.3796786 76.002555,31.6400005 56.5,31.6400005 C36.997445,31.6400005 21.1875003,47.3796786 21.1875,66.7955556 L31.2767857,66.7955556 C31.276786,52.927072 42.5696036,41.684445 56.5,41.684445 C70.4303964,41.684445 81.723214,52.927072 81.7232143,66.7955556"/><ellipse id="Oval" cx="56.248" cy="56.55" fill="url(#radialGradient-3)" stroke="url(#radialGradient-4)" stroke-width="4.536" rx="22.701" ry="22.6"/><path id="Shape" fill="url(#linearGradient-5)" d="M106.946429,31.64 C98.0065462,13.7326615 80.1890434,1.89695388 60.1480466,0.553041792 C40.1070499,-0.790870296 20.856162,8.55909974 9.58482143,25.1111111 L32.2857143,64.2844444 C29.8937431,56.7149475 31.2363413,48.4652621 35.906719,42.0349359 C40.5770967,35.6046097 48.0256396,31.7503695 55.9955357,31.64"/><path id="Shape" fill="url(#radialGradient-6)" d="M9.58482143,25.1111111 C-1.57775838,41.6885103 -3.08115274,62.9132698 5.6341564,80.886174 C14.3494655,98.8590782 31.9783314,110.888624 51.9598214,112.497778 L75.6696429,72.32 C69.8330752,79.3631071 60.61638,82.697168 51.5996906,81.0271001 C42.5830012,79.3570321 35.1874306,72.9460534 32.2857143,64.2844444"/><path id="Shape" fill="url(#radialGradient-7)" d="M51.9598214,112.497778 C72.1668335,114.018659 91.6444387,104.649285 103.005235,87.9432388 C114.366032,71.2371932 115.869889,49.7533384 106.946429,31.64 L55.9955357,31.64 C65.6432199,31.6841199 74.4204715,37.2032168 78.6058317,45.857254 C82.791192,54.5112911 81.6513719,64.7840527 75.6696429,72.32"/><path id="Shape" fill="#000" d="M9.58482143,25.1111111 L32.2857143,64.2844444 C30.6044278,58.6504381 30.9614639,52.6077997 33.2946429,47.2088889 L10.59375,23.6044444" opacity=".075"/><path id="Shape" fill="#000" d="M51.9598214,112.497778 L75.6696429,72.32 C71.9290367,76.7615143 66.7602656,79.778017 61.0401786,80.8577778 L50.9508929,112.497778" opacity=".05"/><path id="Shape" fill="#000" d="M106.946429,31.64 L55.9955357,31.64 C63.6702527,31.6752252 70.9113493,35.1872602 75.6696429,41.1822222 L107.955357,33.1466667" opacity=".05"/></g></g><g id="arrow" fill="#ECEFF1" transform="translate(295.000000, 134.000000)"><path id="Combined-Shape" d="M146.687746,30 L5.5,30 L0.5,30 L0.5,20 L5.5,20 L147.036953,20 L147.717959,0.498543705 L181.922217,27.2712402 L146.04987,48.2663728 L146.687746,30 Z"/></g><g id="arrow" fill="#ECEFF1" transform="translate(386.000000, 265.500000) scale(-1, 1) translate(-386.000000, -265.500000) translate(295.000000, 241.000000)"><path id="Combined-Shape" d="M146.687746,30 L5.5,30 L0.5,30 L0.5,20 L5.5,20 L147.036953,20 L147.717959,0.498543705 L181.922217,27.2712402 L146.04987,48.2663728 L146.687746,30 Z"/></g><g id="arrow" fill="#ECEFF1" transform="translate(386.000000, 335.500000) scale(-1, 1) translate(-386.000000, -335.500000) translate(295.000000, 311.000000)"><path id="Combined-Shape" d="M146.687746,30 L5.5,30 L0.5,30 L0.5,20 L5.5,20 L147.036953,20 L147.717959,0.498543705 L181.922217,27.2712402 L146.04987,48.2663728 L146.687746,30 Z"/></g><g id="server" transform="translate(513.000000, 64.000000)"><g id="server-main"><use fill="#000" fill-opacity="1" filter="url(#filter-9)" xlink:href="#path-8"/><use fill="#FFF" fill-rule="evenodd" stroke="#ECEFF1" stroke-width="1.796" mask="url(#mask-10)" xlink:href="#path-8"/></g><g transform="translate(9.900000, 43.080000)"><rect id="Rectangle-19" width="126" height="27.823" x="0" y="0" fill="#ECEFF1" rx="7.272"/><ellipse id="Oval-2" cx="15.346" cy="13.911" fill="#FFF" rx="4.038" ry="4.092"/><rect id="Rectangle-20" width="64.615" height="4.91" x="52.5" y="11.456" fill="#FFF" rx="7.272"/></g><g transform="translate(9.900000, 78.082500)"><rect id="Rectangle-19" width="126" height="27.823" x="0" y="0" fill="#ECEFF1" rx="7.272"/><ellipse id="Oval-2" cx="15.346" cy="13.911" fill="#FFF" rx="4.038" ry="4.092"/><rect id="Rectangle-20" width="64.615" height="4.91" x="52.5" y="11.456" fill="#FFF" rx="7.272"/></g><g transform="translate(9.900000, 218.092500)"><rect id="Rectangle-19" width="126" height="27.823" x="0" y="0" fill="#ECEFF1" rx="7.272"/><ellipse id="Oval-2" cx="15.346" cy="13.911" fill="#FFF" rx="4.038" ry="4.092"/><rect id="Rectangle-20" width="64.615" height="4.91" x="52.5" y="11.456" fill="#FFF" rx="7.272"/></g><g transform="translate(9.900000, 183.189722)"><rect id="Rectangle-19" width="126" height="27.823" x="0" y="0" fill="#ECEFF1" rx="7.272"/><ellipse id="Oval-2" cx="15.346" cy="13.911" fill="#FFF" rx="4.038" ry="4.092"/><rect id="Rectangle-20" width="64.615" height="4.91" x="52.5" y="11.456" fill="#FFF" rx="7.272"/></g><g transform="translate(9.900000, 148.286944)"><rect id="Rectangle-19" width="126" height="27.823" x="0" y="0" fill="#ECEFF1" rx="7.272"/><ellipse id="Oval-2" cx="15.346" cy="13.911" fill="#FFF" rx="4.038" ry="4.092"/><rect id="Rectangle-20" width="64.615" height="4.91" x="52.5" y="11.456" fill="#FFF" rx="7.272"/></g><g transform="translate(9.900000, 113.384167)"><rect id="Rectangle-19" width="126" height="27.823" x="0" y="0" fill="#ECEFF1" rx="7.272"/><ellipse id="Oval-2" cx="15.346" cy="13.911" fill="#FFF" rx="4.038" ry="4.092"/><rect id="Rectangle-20" width="64.615" height="4.91" x="52.5" y="11.456" fill="#FFF" rx="7.272"/></g><g transform="translate(9.900000, 253.095000)"><rect id="Rectangle-19" width="126" height="27.823" x="0" y="0" fill="#ECEFF1" rx="7.272"/><ellipse id="Oval-2" cx="15.346" cy="13.911" fill="#FFF" rx="4.038" ry="4.092"/><rect id="Rectangle-20" width="64.615" height="4.91" x="52.5" y="11.456" fill="#FFF" rx="7.272"/></g><g transform="translate(9.900000, 288.097500)"><rect id="Rectangle-19" width="126" height="27.823" x="0" y="0" fill="#ECEFF1" rx="7.272"/><ellipse id="Oval-2" cx="15.346" cy="13.911" fill="#FFF" rx="4.038" ry="4.092"/><rect id="Rectangle-20" width="64.615" height="4.91" x="52.5" y="11.456" fill="#FFF" rx="7.272"/></g><g transform="translate(9.900000, 323.100000)"><rect id="Rectangle-19" width="126" height="27.823" x="0" y="0" fill="#ECEFF1" rx="7.272"/><ellipse id="Oval-2" cx="15.346" cy="13.911" fill="#FFF" rx="4.038" ry="4.092"/><rect id="Rectangle-20" width="64.615" height="4.91" x="52.5" y="11.456" fill="#FFF" rx="7.272"/></g><g transform="translate(9.000000, 8.975000)"><rect id="Rectangle-19" width="126" height="27.823" x="0" y="0" fill="#ECEFF1" rx="7.272"/><ellipse id="Oval-2" cx="15.346" cy="13.911" fill="#FFF" rx="4.038" ry="4.092"/><rect id="Rectangle-20" width="64.615" height="4.91" x="52.5" y="11.456" fill="#FFF" rx="7.272"/></g></g><g id="server" transform="translate(759.000000, 64.000000)"><g id="server-main"><use fill="#000" fill-opacity="1" filter="url(#filter-12)" xlink:href="#path-11"/><use fill="#FFF" fill-rule="evenodd" stroke="#ECEFF1" stroke-width="1.796" mask="url(#mask-13)" xlink:href="#path-11"/></g><g transform="translate(9.900000, 43.080000)"><rect id="Rectangle-19" width="126" height="27.823" x="0" y="0" fill="#ECEFF1" rx="7.272"/><ellipse id="Oval-2" cx="15.346" cy="13.911" fill="#FFF" rx="4.038" ry="4.092"/><rect id="Rectangle-20" width="64.615" height="4.91" x="52.5" y="11.456" fill="#FFF" rx="7.272"/></g><g transform="translate(9.900000, 78.082500)"><rect id="Rectangle-19" width="126" height="27.823" x="0" y="0" fill="#ECEFF1" rx="7.272"/><ellipse id="Oval-2" cx="15.346" cy="13.911" fill="#FFF" rx="4.038" ry="4.092"/><rect id="Rectangle-20" width="64.615" height="4.91" x="52.5" y="11.456" fill="#FFF" rx="7.272"/></g><g transform="translate(9.900000, 218.092500)"><rect id="Rectangle-19" width="126" height="27.823" x="0" y="0" fill="#ECEFF1" rx="7.272"/><ellipse id="Oval-2" cx="15.346" cy="13.911" fill="#FFF" rx="4.038" ry="4.092"/><rect id="Rectangle-20" width="64.615" height="4.91" x="52.5" y="11.456" fill="#FFF" rx="7.272"/></g><g transform="translate(9.900000, 183.189722)"><rect id="Rectangle-19" width="126" height="27.823" x="0" y="0" fill="#ECEFF1" rx="7.272"/><ellipse id="Oval-2" cx="15.346" cy="13.911" fill="#FFF" rx="4.038" ry="4.092"/><rect id="Rectangle-20" width="64.615" height="4.91" x="52.5" y="11.456" fill="#FFF" rx="7.272"/></g><g transform="translate(9.900000, 148.286944)"><rect id="Rectangle-19" width="126" height="27.823" x="0" y="0" fill="#ECEFF1" rx="7.272"/><ellipse id="Oval-2" cx="15.346" cy="13.911" fill="#FFF" rx="4.038" ry="4.092"/><rect id="Rectangle-20" width="64.615" height="4.91" x="52.5" y="11.456" fill="#FFF" rx="7.272"/></g><g transform="translate(9.900000, 113.384167)"><rect id="Rectangle-19" width="126" height="27.823" x="0" y="0" fill="#ECEFF1" rx="7.272"/><ellipse id="Oval-2" cx="15.346" cy="13.911" fill="#FFF" rx="4.038" ry="4.092"/><rect id="Rectangle-20" width="64.615" height="4.91" x="52.5" y="11.456" fill="#FFF" rx="7.272"/></g><g transform="translate(9.900000, 253.095000)"><rect id="Rectangle-19" width="126" height="27.823" x="0" y="0" fill="#ECEFF1" rx="7.272"/><ellipse id="Oval-2" cx="15.346" cy="13.911" fill="#FFF" rx="4.038" ry="4.092"/><rect id="Rectangle-20" width="64.615" height="4.91" x="52.5" y="11.456" fill="#FFF" rx="7.272"/></g><g transform="translate(9.900000, 288.097500)"><rect id="Rectangle-19" width="126" height="27.823" x="0" y="0" fill="#ECEFF1" rx="7.272"/><ellipse id="Oval-2" cx="15.346" cy="13.911" fill="#FFF" rx="4.038" ry="4.092"/><rect id="Rectangle-20" width="64.615" height="4.91" x="52.5" y="11.456" fill="#FFF" rx="7.272"/></g><g transform="translate(9.900000, 323.100000)"><rect id="Rectangle-19" width="126" height="27.823" x="0" y="0" fill="#ECEFF1" rx="7.272"/><ellipse id="Oval-2" cx="15.346" cy="13.911" fill="#FFF" rx="4.038" ry="4.092"/><rect id="Rectangle-20" width="64.615" height="4.91" x="52.5" y="11.456" fill="#FFF" rx="7.272"/></g><g transform="translate(9.000000, 8.975000)"><rect id="Rectangle-19" width="126" height="27.823" x="0" y="0" fill="#ECEFF1" rx="7.272"/><ellipse id="Oval-2" cx="15.346" cy="13.911" fill="#FFF" rx="4.038" ry="4.092"/><rect id="Rectangle-20" width="64.615" height="4.91" x="52.5" y="11.456" fill="#FFF" rx="7.272"/></g></g><g id="server" transform="translate(620.000000, 31.000000)"><g id="server-main"><use fill="#000" fill-opacity="1" filter="url(#filter-15)" xlink:href="#path-14"/><use fill="#FFF" fill-rule="evenodd" xlink:href="#path-14"/><use stroke="#ECEFF1" stroke-width="4.2" mask="url(#mask-16)" xlink:href="#path-14"/></g><g transform="translate(11.550000, 50.400000)"><rect id="Rectangle-19" width="147" height="32.55" x="0" y="0" fill="#ECEFF1" rx="8.505"/><ellipse id="Oval-2" cx="17.904" cy="16.275" fill="#FFF" rx="4.712" ry="4.787"/><rect id="Rectangle-20" width="75.385" height="5.744" x="61.25" y="13.403" fill="#FFF" rx="8.505"/></g><g transform="translate(11.550000, 91.350000)"><rect id="Rectangle-19" width="147" height="32.55" x="0" y="0" fill="#ECEFF1" rx="8.505"/><ellipse id="Oval-2" cx="17.904" cy="16.275" fill="#FFF" rx="4.712" ry="4.787"/><rect id="Rectangle-20" width="75.385" height="5.744" x="61.25" y="13.403" fill="#FFF" rx="8.505"/></g><g id="server-" fill="#ECEFF1" transform="translate(11.550000, 131.250000)"><rect id="Rectangle-19" width="147" height="115.5" x="0" y="0" rx="8.505"/></g><g transform="translate(11.550000, 255.150000)"><rect id="Rectangle-19" width="147" height="32.55" x="0" y="0" fill="#ECEFF1" rx="8.505"/><ellipse id="Oval-2" cx="17.904" cy="16.275" fill="#FFF" rx="4.712" ry="4.787"/><rect id="Rectangle-20" width="75.385" height="5.744" x="61.25" y="13.403" fill="#FFF" rx="8.505"/></g><g transform="translate(11.550000, 296.100000)"><rect id="Rectangle-19" width="147" height="32.55" x="0" y="0" fill="#ECEFF1" rx="8.505"/><ellipse id="Oval-2" cx="17.904" cy="16.275" fill="#FFF" rx="4.712" ry="4.787"/><rect id="Rectangle-20" width="75.385" height="5.744" x="61.25" y="13.403" fill="#FFF" rx="8.505"/></g><g id="angular" transform="translate(42.000000, 142.800000)"><g id="Layer_1"><g id="Group"><polygon id="Shape" fill="#DD0031" points="43.05 0 43.05 0 43.05 0 .412 15.338 6.915 72.211 43.05 92.4 43.05 92.4 43.05 92.4 79.185 72.211 85.688 15.338"/><polygon id="Shape" fill="#C3002F" points="43.05 0 43.05 10.256 43.05 10.21 43.05 57.011 43.05 57.011 43.05 92.4 43.05 92.4 79.185 72.211 85.688 15.338"/><path id="Shape" fill="#FFF" d="M43.05,10.2102 L16.3956383,70.5012 L16.3956383,70.5012 L26.3337766,70.5012 L26.3337766,70.5012 L31.6921277,57.0108 L54.3162766,57.0108 L59.6746277,70.5012 L59.6746277,70.5012 L69.612766,70.5012 L69.612766,70.5012 L43.05,10.2102 L43.05,10.2102 L43.05,10.2102 L43.05,10.2102 L43.05,10.2102 L43.05,10.2102 Z M50.8356383,48.6948 L35.2643617,48.6948 L43.05,29.799 L50.8356383,48.6948 L50.8356383,48.6948 Z"/></g></g></g><g transform="translate(11.550000, 337.050000)"><rect id="Rectangle-19" width="147" height="32.55" x="0" y="0" fill="#ECEFF1" rx="8.505"/><ellipse id="Oval-2" cx="17.904" cy="16.275" fill="#FFF" rx="4.712" ry="4.787"/><rect id="Rectangle-20" width="75.385" height="5.744" x="61.25" y="13.403" fill="#FFF" rx="8.505"/></g><g transform="translate(11.550000, 378.000000)"><rect id="Rectangle-19" width="147" height="32.55" x="0" y="0" fill="#ECEFF1" rx="8.505"/><ellipse id="Oval-2" cx="17.904" cy="16.275" fill="#FFF" rx="4.712" ry="4.787"/><rect id="Rectangle-20" width="75.385" height="5.744" x="61.25" y="13.403" fill="#FFF" rx="8.505"/></g><g transform="translate(10.500000, 10.500000)"><rect id="Rectangle-19" width="147" height="32.55" x="0" y="0" fill="#ECEFF1" rx="8.505"/><ellipse id="Oval-2" cx="17.904" cy="16.275" fill="#FFF" rx="4.712" ry="4.787"/><rect id="Rectangle-20" width="75.385" height="5.744" x="61.25" y="13.403" fill="#FFF" rx="8.505"/></g></g></g></g></svg>